<svg width="962" height="96" viewBox="0 0 962 96" fill="none" xmlns="http://www.w3.org/2000/svg">
<path fill-rule="evenodd" clip-rule="evenodd" d="M69.0753 13.4737H82.5534V42.1053H69.0753V53.8947H82.5534V82.5263H69.0753V96H0V53.8947H13.4781V42.1053H0V0H69.0753V13.4737ZM15.1629 80.8421H67.3905V55.5789H15.1629V80.8421ZM15.1629 40.4211H67.3905V15.1579H15.1629V40.4211Z" fill="#202020"/>
<path d="M112.879 80.8421H166.792V96H97.7163V0H112.879V80.8421Z" fill="#202020"/>
<path fill-rule="evenodd" clip-rule="evenodd" d="M251.03 13.4737H264.508V96H249.345V55.5789H197.117V96H181.954V13.4737H195.433V0H251.03V13.4737ZM197.117 40.4211H249.345V15.1579H197.117V40.4211Z" fill="#202020"/>
<path d="M348.746 13.4737H362.224V28.6316H347.061V15.1579H294.834V80.8421H347.061V67.3684H362.224V82.5263H348.746V96H293.149V82.5263H279.671V13.4737H293.149V0H348.746V13.4737Z" fill="#202020"/>
<path d="M392.55 40.4211H431.299V26.9474H444.778V0H459.94V28.6316H446.462V42.1053H432.984V53.8947H446.462V67.3684H459.94V96H444.778V69.0526H431.299V55.5789H392.55V96H377.387V0H392.55V40.4211Z" fill="#202020"/>
<path d="M544.179 13.4737H557.657V28.6316H542.494V15.1579H490.266V40.4211H544.179V53.8947H557.657V82.5263H544.179V96H488.581V82.5263H475.103V67.3684H490.266V80.8421H542.494V55.5789H488.581V42.1053H475.103V13.4737H488.581V0H544.179V13.4737Z" fill="#202020"/>
<path d="M614.939 13.4737H626.732V0H655.373V13.4737H668.851V96H653.688V15.1579H628.417V96H613.254V15.1579H587.982V96H572.82V13.4737H586.298V0H614.939V13.4737Z" fill="#202020"/>
<path d="M712.655 13.4737H724.448V0H753.089V15.1579H726.133V80.8421H753.089V96H724.448V82.5263H712.655V96H684.014V80.8421H710.97V15.1579H684.014V0H712.655V13.4737Z" fill="#202020"/>
<path d="M810.371 13.4737H822.165V0H864.284V15.1579H823.849V96H808.687V15.1579H768.252V0H810.371V13.4737Z" fill="#202020"/>
<path d="M894.609 40.4211H946.837V0H962V96H946.837V55.5789H894.609V96H879.447V0H894.609V40.4211Z" fill="#202020"/>
</svg>
